<svg width="167" height="53" viewBox="0 0 167 53" fill="none" xmlns="http://www.w3.org/2000/svg">
<path fill-rule="evenodd" clip-rule="evenodd" d="M10.0167 0.493896H156.728C159.989 0.493896 161.169 0.859112 162.361 1.53737C163.538 2.20467 164.5 3.23639 165.122 4.49823C165.755 5.77648 166.096 7.04169 166.096 10.5243V42.6372C166.096 46.1198 165.755 47.385 165.122 48.6632C164.5 49.9251 163.538 50.9568 162.361 51.6241C161.169 52.3024 159.989 52.6676 156.741 52.6676H10.0046C6.75646 52.6676 5.57644 52.3024 4.38425 51.6241C3.20738 50.9568 2.24513 49.9251 1.62276 48.6632C0.990176 47.385 0.649551 46.1198 0.649551 42.6372V10.5243C0.649551 7.04169 0.990176 5.77648 1.62276 4.49823C2.24513 3.23639 3.20738 2.20467 4.38425 1.53737C5.57644 0.859112 6.75646 0.493896 10.0046 0.493896H10.0167Z" fill="black"/>
<path fill-rule="evenodd" clip-rule="evenodd" d="M19.8215 39.3241L19.9675 39.3632C19.9181 39.3535 19.8693 39.3404 19.8215 39.3241ZM40.6239 24.4546C41.1713 24.7807 41.5119 25.2111 41.6214 25.6546L41.6458 25.8242C41.5971 26.3198 41.2443 26.8155 40.6117 27.1937L21.3908 38.8937C21.0015 39.1415 20.6244 39.2458 20.2959 39.2458C19.9553 39.2458 19.6633 39.1284 19.42 38.9067L19.347 38.8284C19.0282 38.4161 18.8673 37.8892 18.8969 37.3545V14.2938C18.8969 13.5894 19.0916 13.0546 19.42 12.7286C19.6633 12.5068 19.9553 12.3894 20.2959 12.3894C20.6244 12.3894 21.0015 12.5068 21.3908 12.7416L40.6117 24.4546H40.6239ZM20.2838 12.2329H20.4541H20.2838ZM131.96 38.7893H134.223V22.485H131.96V38.7893ZM152.397 28.3546L149.794 35.4241H149.721L147.02 28.3546H144.575L148.626 38.2415L146.315 43.7328H148.687L154.928 28.3546H152.397ZM139.527 36.9371C138.784 36.9371 137.75 36.5458 137.75 35.5545C137.75 34.2893 139.04 33.8067 140.147 33.8067C141.157 33.8067 141.619 34.0415 142.227 34.3545C142.145 35.0626 141.826 35.7145 141.329 36.1894C140.832 36.6643 140.192 36.93 139.527 36.9371ZM139.806 28.0024C138.152 28.0024 136.461 28.785 135.755 30.4937L137.763 31.4067C138.201 30.4937 139.003 30.2067 139.831 30.2067C141.011 30.2067 142.203 30.9502 142.227 32.2937V32.4633C141.497 32.0485 140.682 31.8334 139.855 31.8372C137.69 31.8372 135.476 33.1154 135.476 35.5024C135.476 37.6937 137.264 39.1024 139.247 39.1024C140.78 39.1024 141.619 38.3589 142.154 37.498H142.227V38.7632H144.417V32.5024C144.417 29.6198 142.397 28.0024 139.794 28.0024H139.806ZM125.768 30.3502H122.544V24.7415H125.768C127.471 24.7415 128.444 26.2546 128.444 27.5459C128.444 28.8111 127.471 30.3372 125.768 30.3372V30.3502ZM125.719 22.485H120.269V38.7893H122.544V32.6067H125.707C128.225 32.6067 130.695 30.6502 130.695 27.5459C130.695 24.4416 128.225 22.485 125.707 22.485H125.719ZM96.0483 36.9371C94.4911 36.9371 93.1773 35.5285 93.1773 33.598C93.1773 31.6415 94.4911 30.2067 96.0483 30.2067C97.6054 30.2067 98.8219 31.6415 98.8219 33.598C98.8219 35.5285 97.6054 36.9371 96.0483 36.9371ZM98.6638 29.2676H98.5786C98.2327 28.8652 97.8107 28.5465 97.3408 28.3328C96.8709 28.1191 96.3639 28.0154 95.8536 28.0285C94.5144 28.0828 93.2478 28.6951 92.3232 29.7352C91.3985 30.7753 90.8888 32.1612 90.9024 33.598C90.8922 35.0301 91.4041 36.4097 92.329 37.4429C93.254 38.476 94.5187 39.0809 95.8536 39.1284C96.3663 39.1426 96.8757 39.0367 97.3463 38.8182C97.817 38.5997 98.2375 38.2738 98.5786 37.8632H98.6638V38.6589C98.6638 40.785 97.6054 41.9197 95.9023 41.9197C95.333 41.9081 94.7799 41.7144 94.3139 41.3635C93.8479 41.0125 93.4902 40.5204 93.2868 39.9502L91.316 40.8241C91.6874 41.8 92.3226 42.6345 93.1399 43.2203C93.9572 43.806 94.9192 44.1163 95.9023 44.111C98.5665 44.111 100.817 42.4154 100.817 38.3328V28.3676H98.6638V29.2807V29.2676ZM102.386 38.7893H104.661V22.485H102.386V38.7893ZM108.007 33.4024C107.982 32.9989 108.033 32.5943 108.156 32.2121C108.279 31.8299 108.472 31.4779 108.723 31.1766C108.975 30.8754 109.28 30.631 109.62 30.4577C109.961 30.2845 110.331 30.1858 110.707 30.1676C111.62 30.1676 112.386 30.6502 112.629 31.3415L108.007 33.4154V33.4024ZM115.062 31.5633C114.637 30.3241 113.323 28.0415 110.634 28.0415C107.97 28.0415 105.756 30.272 105.756 33.5719C105.756 36.6893 107.946 39.1284 110.89 39.1284C113.262 39.1284 114.637 37.5632 115.208 36.6632L113.444 35.4111C113.179 35.8811 112.803 36.269 112.355 36.5365C111.908 36.8041 111.402 36.9422 110.89 36.9371C109.734 36.9371 108.907 36.3763 108.384 35.2545L115.306 32.1893L115.062 31.5633ZM59.9543 29.7372V32.085H65.1975C65.1218 33.1876 64.7018 34.2307 64.0053 35.0459C63.4781 35.6217 62.8441 36.0725 62.1442 36.3691C61.4442 36.6657 60.6941 36.8015 59.9421 36.7676C59.1797 36.7659 58.4252 36.6022 57.7222 36.2858C57.0192 35.9695 56.3817 35.5068 55.8466 34.9245C55.3115 34.3423 54.8894 33.652 54.6047 32.8937C54.32 32.1354 54.1784 31.3241 54.188 30.5067C54.1737 29.2931 54.4929 28.1017 55.1058 27.0812C55.7187 26.0607 56.5982 25.2562 57.6346 24.768C58.6711 24.2799 59.8186 24.1296 60.9342 24.3359C62.0498 24.5423 63.084 25.0962 63.908 25.9285L65.4529 24.272C64.7279 23.5031 63.867 22.8971 62.9207 22.4894C61.9744 22.0818 60.9618 21.8808 59.9421 21.8981C57.8014 21.8978 55.7464 22.8006 54.2213 24.4114C52.6962 26.0222 51.8234 28.2117 51.7915 30.5067C51.8234 32.8018 52.6962 34.9913 54.2213 36.6021C55.7464 38.2129 57.8014 39.1157 59.9421 39.1154C62.3387 39.1154 64.1391 38.2806 65.5503 36.7024C66.8293 35.2039 67.5104 33.2282 67.448 31.198C67.448 30.6502 67.4115 30.1546 67.3264 29.7372H59.9421H59.9543ZM73.4211 36.9371C71.8518 36.9371 70.5015 35.5545 70.5015 33.5719C70.5015 31.5763 71.8518 30.2198 73.4211 30.2198C75.0026 30.2198 76.3407 31.5763 76.3407 33.5719C76.3407 35.5545 75.0026 36.9371 73.4211 36.9371ZM73.4211 28.0285C72.7379 28.0162 72.0593 28.151 71.4255 28.425C70.7917 28.6989 70.2155 29.1063 69.7312 29.6232C69.2469 30.14 68.8642 30.7558 68.6057 31.4341C68.3473 32.1124 68.2184 32.8393 68.2266 33.5719C68.2167 34.3057 68.3444 35.034 68.6021 35.7138C68.8598 36.3936 69.2423 37.0109 69.7268 37.5292C70.2113 38.0475 70.788 38.4561 71.4226 38.7308C72.0572 39.0055 72.7368 39.1407 73.4211 39.1284C74.1054 39.1407 74.785 39.0055 75.4196 38.7308C76.0543 38.4561 76.6309 38.0475 77.1154 37.5292C77.5999 37.0109 77.9824 36.3936 78.2401 35.7138C78.4978 35.034 78.6255 34.3057 78.6156 33.5719C78.6239 32.8393 78.4949 32.1124 78.2365 31.4341C77.9781 30.7558 77.5953 30.14 77.111 29.6232C76.6267 29.1063 76.0506 28.6989 75.4168 28.425C74.783 28.151 74.1044 28.0162 73.4211 28.0285ZM84.759 36.9371C83.1776 36.9371 81.8394 35.5545 81.8394 33.5719C81.8394 31.5763 83.1776 30.2198 84.759 30.2198C86.3162 30.2198 87.6787 31.5763 87.6787 33.5719C87.6787 35.5545 86.3162 36.9371 84.759 36.9371ZM84.759 28.0285C84.0758 28.0162 83.3972 28.151 82.7634 28.425C82.1296 28.6989 81.5535 29.1063 81.0691 29.6232C80.5848 30.14 80.2021 30.7558 79.9436 31.4341C79.6852 32.1124 79.5563 32.8393 79.5645 33.5719C79.5546 34.3057 79.6823 35.034 79.9401 35.7138C80.1978 36.3936 80.5802 37.0109 81.0647 37.5292C81.5492 38.0475 82.1259 38.4561 82.7605 38.7308C83.3951 39.0055 84.0747 39.1407 84.759 39.1284C85.4433 39.1407 86.1229 39.0055 86.7576 38.7308C87.3922 38.4561 87.9688 38.0475 88.4533 37.5292C88.9378 37.0109 89.3203 36.3936 89.578 35.7138C89.8357 35.034 89.9634 34.3057 89.9536 33.5719C89.9618 32.8393 89.8328 32.1124 89.5744 31.4341C89.316 30.7558 88.9333 30.14 88.4489 29.6232C87.9646 29.1063 87.3885 28.6989 86.7547 28.425C86.1209 28.151 85.4423 28.0162 84.759 28.0285Z" fill="white"/>
<path fill-rule="evenodd" clip-rule="evenodd" d="M58.4948 13.7069C58.4948 14.6852 58.2271 15.4678 57.6797 16.0547C57.0714 16.746 56.2564 17.0982 55.271 17.0982C54.3221 17.0982 53.507 16.746 52.838 16.0417C52.5164 15.7019 52.2631 15.2952 52.0937 14.8466C51.9242 14.3979 51.8422 13.9169 51.8526 13.433C51.8526 12.3895 52.181 11.5026 52.8501 10.7982C53.507 10.0939 54.3099 9.7417 55.271 9.7417C55.7333 9.7417 56.1834 9.84605 56.6092 10.0417C57.0471 10.2373 57.3877 10.4982 57.6432 10.8243L57.0593 11.4373C56.8398 11.1618 56.5648 10.9434 56.2549 10.7988C55.9451 10.6542 55.6086 10.5871 55.271 10.6026C54.5776 10.6026 53.9815 10.8634 53.4705 11.3852C52.9718 11.9069 52.7163 12.5852 52.7163 13.4199C52.7163 14.2547 52.9596 14.933 53.4705 15.4547C53.9815 15.9765 54.5654 16.2373 55.271 16.2373C56.0009 16.2373 56.6092 15.9765 57.0958 15.4547C57.4121 15.1025 57.6067 14.633 57.6554 14.0199H55.271V13.1721H58.4461C58.4826 13.3547 58.4948 13.5373 58.4948 13.6939" fill="white"/>
<path fill-rule="evenodd" clip-rule="evenodd" d="M58.4945 13.7069H58.3851C58.3851 14.6721 58.1174 15.4025 57.6065 15.9764C56.9982 16.6416 56.2318 16.9808 55.2708 16.9808C54.3462 16.9808 53.5677 16.6416 52.9229 15.9634C52.6075 15.6336 52.3592 15.2374 52.1938 14.7996C52.0284 14.3618 51.9494 13.8921 51.9619 13.4199C51.9619 12.4025 52.2782 11.5677 52.9351 10.8764C53.2394 10.5455 53.6035 10.2845 54.0051 10.1096C54.4067 9.93468 54.8374 9.84942 55.2708 9.85905C55.7209 9.85905 56.1588 9.95035 56.5725 10.146C56.9861 10.3417 57.3024 10.5895 57.5578 10.9025L57.643 10.8243L57.5578 10.746L56.9861 11.359L57.0591 11.4373L57.1442 11.3721C56.6941 10.7851 56.0494 10.4851 55.2708 10.4851C54.5409 10.4851 53.9205 10.759 53.3973 11.3069C52.8742 11.8416 52.6066 12.559 52.6066 13.4199C52.6066 14.2808 52.8742 14.9851 53.3973 15.5329C53.9205 16.0808 54.553 16.3547 55.2708 16.3547C56.025 16.3547 56.6698 16.0808 57.1807 15.5329C57.5213 15.1677 57.716 14.659 57.7646 14.0329V13.9025H55.3924V13.2895H58.4581V13.1721L58.3486 13.1982C58.3851 13.3677 58.3972 13.5373 58.3972 13.7069H58.6162C58.6162 13.5243 58.604 13.3416 58.5675 13.159L58.5554 13.0547H55.1491V14.1373H57.643V14.0199H57.5213C57.4848 14.6069 57.3024 15.0503 57.0104 15.3634C56.536 15.8721 55.9642 16.1199 55.2586 16.1199C54.5895 16.1199 54.0178 15.859 53.5312 15.3634C53.0446 14.8677 52.8013 14.2286 52.8013 13.4199C52.8013 12.6112 53.0446 11.9851 53.5312 11.4634C54.0178 10.9677 54.5895 10.7199 55.2586 10.7199C55.9885 10.7199 56.5481 10.9808 56.9617 11.5156L57.0469 11.6199L57.7038 10.9025L57.7768 10.8373L57.716 10.746C57.4245 10.3854 57.0577 10.1039 56.6454 9.92427C56.2107 9.72627 55.7431 9.62424 55.2708 9.62427C54.2976 9.62427 53.446 9.98948 52.7769 10.7199C52.4422 11.068 52.1777 11.4861 51.9999 11.9483C51.822 12.4105 51.7345 12.907 51.7429 13.4069C51.7429 14.4764 52.0835 15.3895 52.7769 16.1199C53.1023 16.4724 53.4912 16.7503 53.9199 16.9364C54.3487 17.1225 54.8083 17.2131 55.2708 17.2025C56.2805 17.2025 57.1199 16.8373 57.7525 16.1199L57.6795 16.0416L57.7525 16.1329C58.3242 15.5199 58.604 14.6982 58.604 13.6938H58.4945V13.7069ZM63.5431 10.759H60.5505V13.0025H63.2511V13.8373H60.5505V16.0808H63.5431V16.9416H59.7111V9.89818H63.5431V10.759Z" fill="white"/>
<path fill-rule="evenodd" clip-rule="evenodd" d="M63.5432 10.7593V10.6419H60.441V13.1201H63.1417V13.7201H60.441V16.1984H63.4337V16.8245H59.8206V10.0158H63.4337V10.7593H63.5432V10.6419V10.7723H63.6526V9.78101H59.6016V17.0592H63.6526V15.9636H60.66V13.9549H63.3607V12.8853H60.66V10.8767H63.6526V10.7593H63.531H63.5432ZM67.0954 16.9418H66.256V10.7593H64.4312V9.8984H68.9323V10.7593H67.1075V16.9418" fill="white"/>
<path fill-rule="evenodd" clip-rule="evenodd" d="M67.0955 16.9418V16.8245H66.3656V10.6419H64.5408V10.0158H68.823V10.6419H66.9982V16.9418H67.0955V16.8245V16.9549H67.2172V10.8767H69.0419V9.78101H64.3097V10.8767H66.1466V17.0592H67.205V16.9418H67.0955ZM72.2049 16.9418H73.0564V9.8984H72.2049V16.9418Z" fill="white"/>
<path fill-rule="evenodd" clip-rule="evenodd" d="M72.2048 16.9418H72.3142V10.0288H72.9347V16.8245H72.2048V16.9549H72.3142H72.1926V17.0592H73.1658V9.78101H72.0953V17.0592H72.2048V16.9418ZM76.791 16.9418H75.9395V10.7593H74.1147V9.8984H78.6158V10.7593H76.791V16.9418Z" fill="white"/>
<path fill-rule="evenodd" clip-rule="evenodd" d="M76.7908 16.9418V16.8244H76.0609V10.6418H74.2239V10.0157H78.5061V10.6418H76.6813V16.9418H76.7908V16.8244V16.9548H76.9003V10.8766H78.7251V9.78093H74.005V10.8766H75.8298V17.0592H76.9003V16.9418H76.7786H76.7908ZM82.9707 15.4418C83.4573 15.9635 84.0656 16.2244 84.759 16.2244C85.4646 16.2244 86.0606 15.9635 86.5473 15.4418C87.0339 14.92 87.2772 14.2418 87.2772 13.42C87.2772 12.5983 87.0339 11.9331 86.5473 11.3983C86.0606 10.8766 85.4646 10.6157 84.759 10.6157C84.0534 10.6157 83.4573 10.8766 82.9707 11.3983C82.4841 11.9201 82.2408 12.5983 82.2408 13.42C82.2408 14.2418 82.4841 14.92 82.9707 15.4418ZM87.1677 16.0287C86.5229 16.7461 85.72 17.0983 84.759 17.0983C83.7979 17.0983 82.995 16.7461 82.3503 16.0287C82.0332 15.6861 81.7837 15.2785 81.6165 14.8304C81.4493 14.3822 81.3679 13.9026 81.3771 13.42C81.3673 12.9385 81.4477 12.4598 81.6136 12.0123C81.7795 11.5647 82.0274 11.1573 82.3428 10.8144C82.6581 10.4714 83.0345 10.1997 83.4495 10.0155C83.8645 9.83126 84.3098 9.7382 84.759 9.7418C85.2082 9.7382 85.6534 9.83126 86.0685 10.0155C86.4835 10.1997 86.8598 10.4714 87.1752 10.8144C87.4905 11.1573 87.7385 11.5647 87.9044 12.0123C88.0702 12.4598 88.1507 12.9385 88.1409 13.42C88.1409 14.4505 87.8124 15.3244 87.1677 16.0287Z" fill="white"/>
<path fill-rule="evenodd" clip-rule="evenodd" d="M82.9708 15.4417L82.8979 15.52C83.4088 16.0678 84.0292 16.3548 84.7591 16.3548C85.489 16.3548 86.1216 16.0678 86.6204 15.52C87.1313 14.9722 87.3868 14.2678 87.3868 13.433C87.3868 12.5722 87.1313 11.8678 86.6204 11.32C86.3806 11.0508 86.0914 10.8377 85.7711 10.694C85.4508 10.5504 85.1063 10.4793 84.7591 10.4852C84.0292 10.4852 83.4088 10.7722 82.8979 11.32C82.6445 11.5964 82.4459 11.925 82.3142 12.2859C82.1825 12.6468 82.1203 13.0326 82.1314 13.42C82.1314 14.2678 82.3869 14.9852 82.8979 15.52L83.056 15.3635C82.8212 15.1081 82.6376 14.804 82.5162 14.4698C82.3949 14.1356 82.3385 13.7784 82.3504 13.42C82.3504 12.6374 82.5937 11.9852 83.056 11.4765C83.2763 11.2319 83.5412 11.0385 83.8342 10.9083C84.1272 10.7782 84.442 10.7141 84.7591 10.72C85.4404 10.72 86 10.9809 86.4622 11.4765C86.9367 11.9983 87.1678 12.6244 87.1678 13.433C87.1678 14.2156 86.9245 14.8548 86.4622 15.3635C86 15.8722 85.4404 16.12 84.7591 16.12C84.442 16.1259 84.1272 16.0618 83.8342 15.9317C83.5412 15.8015 83.2763 15.6081 83.056 15.3635L82.9708 15.4417ZM87.1678 16.0287L87.0948 15.9504C86.4622 16.6417 85.6958 16.9809 84.7591 16.9939C84.3253 16.9958 83.8956 16.9044 83.4953 16.7253C83.095 16.5462 82.7321 16.2829 82.4283 15.951C82.1244 15.6191 81.8856 15.2253 81.7259 14.7929C81.5663 14.3604 81.4891 13.898 81.4989 13.433C81.4875 12.967 81.5634 12.5032 81.7223 12.0692C81.8812 11.6352 82.1197 11.2399 82.4238 10.9066C82.7279 10.5733 83.0912 10.3088 83.4924 10.1289C83.8935 9.94897 84.3243 9.85724 84.7591 9.85915C85.6958 9.85915 86.4622 10.1983 87.0827 10.9026C87.7153 11.5939 88.0316 12.4287 88.0316 13.42C88.0316 14.4243 87.7153 15.2591 87.0948 15.9504L87.253 16.12C87.9099 15.3896 88.2505 14.4765 88.2505 13.42C88.2603 12.9231 88.177 12.4291 88.0056 11.9673C87.8343 11.5055 87.5782 11.0852 87.2527 10.7313C86.9272 10.3774 86.5388 10.0971 86.1105 9.90701C85.6822 9.71688 85.2227 9.62077 84.7591 9.62437C84.2966 9.62251 83.8384 9.71991 83.4115 9.91083C82.9846 10.1017 82.5977 10.3823 82.2734 10.736C81.9492 11.0897 81.6943 11.5094 81.5237 11.9703C81.353 12.4313 81.2701 12.9242 81.2799 13.42C81.2799 14.4765 81.6083 15.3765 82.2774 16.12C82.9343 16.8504 83.7737 17.2156 84.7591 17.2156C85.7445 17.2156 86.5839 16.8504 87.253 16.12L87.1678 16.0287ZM89.3332 16.9417V9.89828H90.3551L93.5424 15.3765H93.5789L93.5424 14.02V9.89828H94.3939V16.9417H93.5059L90.1605 11.2026H90.124L90.1605 12.5591V16.9417H89.3211" fill="white"/>
<path fill-rule="evenodd" clip-rule="evenodd" d="M89.3331 16.9418H89.4304V10.0288H90.282L93.4814 15.5071H93.6882L93.6517 14.0201V10.0158H94.2721V16.8245H93.5665L90.2211 11.0853H90.0143L90.0508 12.5593V16.8245H89.3209V16.9549H89.4426H89.3209V17.0592H90.2698V12.5593L90.2333 11.1897H90.1238V11.3201H90.1603V11.1897L90.0752 11.2549L93.4449 17.0592H94.4911V9.78101H93.4327V14.0201L93.4692 15.3766H93.5787V15.2592H93.5422V15.3897L93.6395 15.3114L90.4158 9.78101H89.2114V17.0592H89.3331V16.9418Z" fill="white"/>
</svg>
