<svg width="166" height="53" viewBox="0 0 166 53" fill="none" xmlns="http://www.w3.org/2000/svg">
<path fill-rule="evenodd" clip-rule="evenodd" d="M9.8147 0.494141H156.526C159.787 0.494141 160.967 0.859356 162.159 1.53761C163.336 2.20491 164.298 3.23663 164.92 4.49847C165.553 5.77673 165.894 7.04194 165.894 10.5245V42.6374C165.894 46.12 165.553 47.3852 164.92 48.6635C164.298 49.9253 163.336 50.9571 162.159 51.6243C160.967 52.3026 159.787 52.6678 156.539 52.6678H9.80253C6.55444 52.6678 5.37442 52.3026 4.18223 51.6243C3.00536 50.9571 2.04311 49.9253 1.42074 48.6635C0.788157 47.3852 0.447533 46.12 0.447533 42.6374V10.5245C0.447533 7.04194 0.788157 5.77673 1.42074 4.49847C2.04311 3.23663 3.00536 2.20491 4.18223 1.53761C5.37442 0.859356 6.55444 0.494141 9.80253 0.494141H9.8147Z" fill="black"/>
<path d="M37.3687 26.6202C37.393 24.1811 38.5852 21.9377 40.5195 20.6594C39.9135 19.7327 39.1139 18.9707 38.1846 18.434C37.2553 17.8973 36.2219 17.6008 35.1668 17.5681C32.9284 17.3072 30.7508 19.0029 29.6073 19.0029C28.4395 19.0029 26.6755 17.5942 24.7778 17.6333C23.55 17.6762 22.3534 18.0592 21.3046 18.7449C20.2558 19.4306 19.3903 20.3957 18.7925 21.5464C16.2013 26.3594 18.1356 33.4159 20.6173 37.3028C21.8581 39.1941 23.2936 41.3202 25.2035 41.2419C27.0526 41.1637 27.7582 39.9767 29.9844 39.9767C32.2107 39.9767 32.8554 41.2419 34.7897 41.2028C36.7848 41.1637 38.0378 39.2854 39.2421 37.368C40.1302 36.0115 40.8236 34.5115 41.2737 32.9333C40.1166 32.4082 39.1293 31.5296 38.4349 30.407C37.7405 29.2843 37.3697 27.9674 37.3687 26.6202ZM33.707 15.0116C34.7948 13.6145 35.3315 11.8177 35.2033 10.0029C33.5367 10.1986 32.0038 11.0464 30.909 12.3899C30.3701 13.0467 29.9573 13.8111 29.6943 14.6392C29.4312 15.4673 29.3231 16.343 29.3762 17.2159C30.2067 17.2248 31.0283 17.031 31.7786 16.6491C32.5289 16.2672 33.1884 15.7072 33.707 15.0116Z" fill="white"/>
<path d="M62.8549 35.2419H57.1008L55.7139 39.6245H53.2809L58.7309 23.4245H61.2734L66.7234 39.6245H64.2417L62.8549 35.2419ZM57.6968 33.2202H62.2588L60.0082 26.1115H59.9474L57.6968 33.2202ZM78.4993 33.7158C78.4993 37.381 76.6745 39.7419 73.9008 39.7419C73.2008 39.7819 72.5044 39.6098 71.8912 39.2454C71.2781 38.8809 70.773 38.3388 70.4338 37.681H70.3851V43.5245H68.1224V27.8071H70.3121V29.7636H70.3486C70.7032 29.1068 71.2176 28.5657 71.8369 28.1981C72.4561 27.8305 73.1569 27.6503 73.8643 27.6767C76.6623 27.6767 78.4993 30.0506 78.4993 33.7158ZM76.1757 33.7158C76.1757 31.3289 75.02 29.7506 73.2561 29.7506C71.5408 29.7506 70.3729 31.3549 70.3729 33.7158C70.3729 36.0897 71.5408 37.694 73.2682 37.694C75.02 37.694 76.1757 36.1288 76.1757 33.7158ZM90.6157 33.7158C90.6157 37.381 88.791 39.7419 86.0295 39.7419C85.3294 39.7819 84.633 39.6098 84.0199 39.2454C83.4067 38.8809 82.9017 38.3388 82.5624 37.681H82.5016V43.5245H80.251V27.8071H82.4408V29.7636H82.4773C82.8309 29.1088 83.3434 28.569 83.9603 28.2015C84.5772 27.834 85.2754 27.6527 85.9808 27.6767C88.7788 27.6767 90.6157 30.0506 90.6157 33.7158ZM88.3044 33.7158C88.3044 31.3289 87.1487 29.7506 85.3847 29.7506C83.6573 29.7506 82.5016 31.3549 82.5016 33.7158C82.5016 36.0897 83.6573 37.694 85.3847 37.694C87.1487 37.694 88.3044 36.1288 88.3044 33.7158ZM98.6326 35.1114C98.8029 36.7158 100.251 37.7723 102.246 37.7723C104.156 37.7723 105.53 36.7158 105.53 35.268C105.53 34.0028 104.691 33.2593 102.732 32.7375L100.786 32.2289C98 31.5115 96.7226 30.1289 96.7226 27.8724C96.7226 25.068 98.9854 23.1506 102.209 23.1506C105.409 23.1506 107.598 25.068 107.671 27.8724H105.384C105.25 26.255 103.997 25.2637 102.185 25.2637C100.36 25.2637 99.1192 26.255 99.1192 27.7028C99.1192 28.8376 99.9099 29.5289 101.856 30.0376L103.523 30.468C106.625 31.2506 107.902 32.5941 107.902 34.9549C107.902 37.994 105.652 39.8853 102.075 39.8853C98.7299 39.8853 96.4672 38.0332 96.3212 35.1114H98.6326ZM112.793 25.0158V27.8071H114.885V29.7245H112.793V36.2462C112.793 37.2506 113.206 37.7201 114.131 37.7201C114.374 37.7201 114.618 37.694 114.861 37.668V39.5723C114.459 39.6636 114.034 39.7027 113.62 39.6897C111.382 39.6897 110.518 38.7766 110.518 36.4941V29.7245H108.912V27.8071H110.518V25.0158H112.793ZM116.09 33.7158C116.09 29.9984 118.133 27.6637 121.321 27.6637C124.508 27.6637 126.552 30.0115 126.552 33.7158C126.552 37.4462 124.52 39.7679 121.321 39.7679C118.121 39.7679 116.09 37.4462 116.09 33.7158ZM124.24 33.7158C124.24 31.1723 123.145 29.6723 121.321 29.6723C119.496 29.6723 118.401 31.1723 118.401 33.7158C118.401 36.2723 119.496 37.7593 121.321 37.7593C123.145 37.7593 124.24 36.2723 124.24 33.7158ZM128.413 27.8071H130.566V29.8158H130.615C130.919 28.5245 132.026 27.6376 133.267 27.6897C133.522 27.6897 133.79 27.7158 134.045 27.781V30.0506C133.715 29.9388 133.37 29.8859 133.023 29.8941C132.694 29.8783 132.365 29.9397 132.059 30.0739C131.754 30.2082 131.479 30.412 131.255 30.6714C131.03 30.9308 130.861 31.2394 130.759 31.5759C130.657 31.9125 130.624 32.2688 130.663 32.6202V39.6245H128.413V27.8071ZM144.459 36.1549C144.155 38.294 142.208 39.7679 139.714 39.7679C136.515 39.7679 134.532 37.4593 134.532 33.768C134.532 30.0636 136.527 27.6637 139.629 27.6637C142.67 27.6637 144.592 29.9071 144.592 33.4941V34.3158H136.807V34.4723C136.772 34.9069 136.824 35.3444 136.959 35.7559C137.094 36.1674 137.308 36.5434 137.589 36.8592C137.87 37.1749 138.21 37.423 138.587 37.5872C138.963 37.7514 139.369 37.8278 139.775 37.8114C140.87 37.9158 141.904 37.2506 142.318 36.1549H144.459ZM136.819 32.6332H142.33C142.35 32.2424 142.295 31.8513 142.167 31.4845C142.04 31.1177 141.843 30.783 141.59 30.5014C141.336 30.2198 141.031 29.9973 140.694 29.8479C140.357 29.6985 139.994 29.6254 139.629 29.6332C138.887 29.6332 138.175 29.9493 137.651 30.5119C137.126 31.0745 136.831 31.8376 136.831 32.6332H136.819Z" fill="white"/>
<path d="M57.4167 11.2288C57.8905 11.1938 58.3657 11.2719 58.8079 11.4575C59.2502 11.6431 59.6486 11.9315 59.9744 12.302C60.3002 12.6725 60.5453 13.1159 60.692 13.6002C60.8387 14.0845 60.8835 14.5977 60.823 15.1027C60.823 17.581 59.57 19.0158 57.4167 19.0158H54.7891V11.2288H57.4167ZM55.9204 17.9071H57.2829C57.6209 17.928 57.959 17.8683 58.2728 17.7321C58.5866 17.596 58.8683 17.3868 59.0976 17.1198C59.3268 16.8528 59.498 16.5345 59.5986 16.1879C59.6992 15.8414 59.7268 15.4752 59.6795 15.1158C59.7268 14.7564 59.6992 14.3902 59.5986 14.0436C59.498 13.6971 59.3268 13.3788 59.0976 13.1118C58.8683 12.8447 58.5866 12.6356 58.2728 12.4994C57.959 12.3633 57.6209 12.3035 57.2829 12.3245H55.9204V17.9071ZM62.1003 16.068C62.076 15.688 62.1248 15.3067 62.2437 14.9478C62.3626 14.5889 62.549 14.26 62.7915 13.9816C63.0339 13.7033 63.3271 13.4813 63.6529 13.3295C63.9788 13.1778 64.3302 13.0995 64.6854 13.0995C65.0406 13.0995 65.3921 13.1778 65.7179 13.3295C66.0437 13.4813 66.3369 13.7033 66.5793 13.9816C66.8218 14.26 67.0082 14.5889 67.1271 14.9478C67.246 15.3067 67.2948 15.688 67.2705 16.068C67.2948 16.4479 67.246 16.8292 67.1271 17.1881C67.0082 17.547 66.8218 17.8759 66.5793 18.1543C66.3369 18.4327 66.0437 18.6546 65.7179 18.8064C65.3921 18.9581 65.0406 19.0365 64.6854 19.0365C64.3302 19.0365 63.9788 18.9581 63.6529 18.8064C63.3271 18.6546 63.0339 18.4327 62.7915 18.1543C62.549 17.8759 62.3626 17.547 62.2437 17.1881C62.1248 16.8292 62.076 16.4479 62.1003 16.068ZM66.1513 16.068C66.1513 14.8027 65.6282 14.0593 64.6915 14.0593C63.7426 14.0593 63.2195 14.8027 63.2195 16.068C63.2195 17.3593 63.7426 18.0897 64.6793 18.0897C65.6282 18.0897 66.1513 17.3462 66.1513 16.068ZM74.1316 19.0158H73.0125L71.8811 14.6854H71.7959L70.6646 19.0158H69.5697L68.0491 13.1462H69.1439L70.1171 17.6201H70.2023L71.3337 13.1332H72.3677L73.4991 17.6201H73.5842L74.5574 13.1332H75.6401L74.1316 19.0158ZM76.9053 13.1462H77.9515V14.0723H78.0367C78.3165 13.381 78.9734 12.9636 79.6668 13.0288C79.9332 13.0061 80.2009 13.0481 80.45 13.1517C80.6991 13.2553 80.9232 13.4178 81.1056 13.6272C81.2881 13.8366 81.4241 14.0874 81.5035 14.3609C81.583 14.6345 81.6038 14.9237 81.5646 15.2071V19.0158H80.4697V15.494C80.4697 14.5549 80.1047 14.0854 79.3018 14.0854C79.1204 14.0747 78.9389 14.1066 78.7701 14.1787C78.6012 14.2508 78.449 14.3614 78.324 14.5029C78.199 14.6443 78.1042 14.8133 78.0462 14.9979C77.9882 15.1826 77.9683 15.3786 77.988 15.5723V19.0158H76.9053V13.1462ZM83.292 10.8506H84.3625V19.0158H83.2798L83.292 10.8506ZM85.871 16.068C85.8467 15.688 85.8955 15.3067 86.0144 14.9478C86.1333 14.5889 86.3197 14.26 86.5622 13.9816C86.8046 13.7033 87.0978 13.4813 87.4236 13.3295C87.7495 13.1778 88.1009 13.0995 88.4561 13.0995C88.8113 13.0995 89.1628 13.1778 89.4886 13.3295C89.8144 13.4813 90.1076 13.7033 90.35 13.9816C90.5925 14.26 90.7789 14.5889 90.8978 14.9478C91.0167 15.3067 91.0655 15.688 91.0412 16.068C91.0655 16.4479 91.0167 16.8292 90.8978 17.1881C90.7789 17.547 90.5925 17.8759 90.35 18.1543C90.1076 18.4327 89.8144 18.6546 89.4886 18.8064C89.1628 18.9581 88.8113 19.0365 88.4561 19.0365C88.1009 19.0365 87.7495 18.9581 87.4236 18.8064C87.0978 18.6546 86.8046 18.4327 86.5622 18.1543C86.3197 17.8759 86.1333 17.547 86.0144 17.1881C85.8955 16.8292 85.8467 16.4479 85.871 16.068ZM89.922 16.068C89.922 14.8027 89.3867 14.0593 88.4622 14.0593C87.5133 14.0593 86.9902 14.8027 86.9902 16.068C86.9902 17.3593 87.5133 18.0897 88.45 18.0897C89.3867 18.0897 89.922 17.3462 89.922 16.068ZM92.1726 17.3462C92.1726 16.3027 92.9025 15.6897 94.2163 15.5984L95.7005 15.5071V14.9984C95.7005 14.3854 95.3112 14.0332 94.5691 14.0332C93.9608 14.0332 93.5472 14.268 93.4377 14.6854H92.3794C92.501 13.668 93.3769 13.0288 94.6178 13.0288C95.9924 13.0288 96.771 13.7593 96.771 14.9984V19.0158H95.7248V18.181H95.6396C95.2868 18.794 94.6664 19.1462 93.9973 19.1071C93.7672 19.1326 93.5347 19.1061 93.3147 19.0293C93.0947 18.9525 92.8922 18.8271 92.7202 18.6611C92.5483 18.4952 92.4107 18.2924 92.3164 18.0659C92.222 17.8394 92.173 17.5943 92.1726 17.3462ZM95.7005 16.8506V16.3549L94.3623 16.4462C93.608 16.4984 93.2674 16.7853 93.2674 17.294C93.2674 17.8158 93.6932 18.1288 94.2771 18.1288C94.4495 18.1486 94.6237 18.1308 94.7895 18.0767C94.9553 18.0226 95.1092 17.9333 95.2421 17.8139C95.375 17.6946 95.484 17.5478 95.5628 17.3823C95.6415 17.2168 95.6884 17.0359 95.7005 16.8506ZM98.1943 16.068C98.1943 14.2158 99.0824 13.0419 100.469 13.0419C101.163 13.0028 101.82 13.4071 102.148 14.0723H102.221V10.8506H103.316V19.0158H102.27V18.0897H102.184C101.832 18.7419 101.175 19.1332 100.469 19.1071C99.0702 19.1071 98.1943 17.9332 98.1943 16.068ZM99.3135 16.068C99.3135 17.3201 99.8609 18.0636 100.773 18.0636C101.686 18.0636 102.245 17.3071 102.245 16.081C102.245 14.8549 101.674 14.0854 100.773 14.0854C99.8609 14.0854 99.3135 14.8419 99.3135 16.068ZM107.78 16.068C107.756 15.688 107.805 15.3067 107.924 14.9478C108.043 14.5889 108.229 14.26 108.472 13.9816C108.714 13.7033 109.007 13.4813 109.333 13.3295C109.659 13.1778 110.01 13.0995 110.366 13.0995C110.721 13.0995 111.072 13.1778 111.398 13.3295C111.724 13.4813 112.017 13.7033 112.259 13.9816C112.502 14.26 112.688 14.5889 112.807 14.9478C112.926 15.3067 112.975 15.688 112.951 16.068C112.975 16.4479 112.926 16.8292 112.807 17.1881C112.688 17.547 112.502 17.8759 112.259 18.1543C112.017 18.4327 111.724 18.6546 111.398 18.8064C111.072 18.9581 110.721 19.0365 110.366 19.0365C110.01 19.0365 109.659 18.9581 109.333 18.8064C109.007 18.6546 108.714 18.4327 108.472 18.1543C108.229 17.8759 108.043 17.547 107.924 17.1881C107.805 16.8292 107.756 16.4479 107.78 16.068ZM111.831 16.068C111.831 14.8027 111.296 14.0593 110.372 14.0593C109.423 14.0593 108.9 14.8027 108.9 16.068C108.9 17.3593 109.423 18.0897 110.359 18.0897C111.296 18.0897 111.831 17.3462 111.831 16.068ZM114.398 13.1462H115.432V14.0723H115.517C115.797 13.381 116.454 12.9636 117.16 13.0288C117.425 13.0082 117.691 13.0517 117.939 13.1562C118.187 13.2607 118.409 13.4236 118.59 13.6327C118.771 13.8418 118.906 14.0918 118.985 14.3644C119.064 14.6369 119.084 14.9249 119.045 15.2071V19.0158H117.975V15.494C117.975 14.5549 117.586 14.0854 116.783 14.0854C116.602 14.0767 116.422 14.11 116.255 14.183C116.087 14.2559 115.937 14.3668 115.813 14.5081C115.689 14.6493 115.596 14.8175 115.538 15.0012C115.481 15.1849 115.462 15.3797 115.481 15.5723V19.0158H114.386V13.1462H114.398ZM125.164 11.6723V13.1723H126.344V14.1375H125.164V17.1636C125.164 17.7766 125.396 18.0506 125.931 18.0506L126.344 18.0245V18.9897C126.15 19.0288 125.955 19.0419 125.761 19.0419C124.544 19.0419 124.082 18.5853 124.082 17.4636V14.1375H123.206V13.1723H124.082V11.6723H125.164ZM127.816 10.8506H128.899V14.0854H128.984C129.276 13.3941 129.945 12.9636 130.651 13.0419C130.915 13.0261 131.179 13.0729 131.425 13.179C131.67 13.2852 131.891 13.4481 132.071 13.6561C132.251 13.8641 132.386 14.1121 132.467 14.3824C132.547 14.6527 132.571 14.9388 132.537 15.2201V19.0027H131.454V15.5071C131.454 14.568 131.04 14.0984 130.286 14.0984C130.1 14.0804 129.912 14.1065 129.736 14.1749C129.56 14.2432 129.4 14.3522 129.268 14.494C129.136 14.6358 129.034 14.8071 128.97 14.9957C128.907 15.1843 128.882 15.3856 128.899 15.5853V19.0158H127.816V10.8506ZM138.838 17.4245C138.69 17.96 138.372 18.423 137.938 18.7329C137.505 19.0427 136.984 19.1797 136.466 19.1201C136.106 19.1291 135.748 19.0544 135.417 18.9011C135.087 18.7478 134.791 18.5195 134.551 18.2319C134.31 17.9443 134.131 17.6043 134.025 17.2353C133.918 16.8662 133.888 16.4769 133.936 16.094C133.889 15.7094 133.919 15.3183 134.025 14.9474C134.131 14.5764 134.31 14.2341 134.55 13.9436C134.789 13.6531 135.085 13.4211 135.415 13.2633C135.746 13.1055 136.104 13.0256 136.466 13.0288C137.986 13.0288 138.899 14.1375 138.899 15.9897V16.381H135.043V16.4593C135.026 16.6749 135.051 16.8919 135.117 17.0965C135.183 17.301 135.288 17.4885 135.425 17.647C135.563 17.8054 135.729 17.9313 135.915 18.0165C136.1 18.1018 136.301 18.1444 136.502 18.1419C137.025 18.2071 137.536 17.9201 137.804 17.4245H138.838ZM135.043 15.5332H137.804C137.818 15.3368 137.793 15.1395 137.731 14.9539C137.67 14.7683 137.573 14.5983 137.448 14.4549C137.322 14.3114 137.17 14.1975 137.001 14.1204C136.832 14.0433 136.65 14.0048 136.466 14.0071C136.278 14.0036 136.091 14.0406 135.917 14.1161C135.743 14.1915 135.585 14.3038 135.452 14.4462C135.319 14.5886 135.215 14.7583 135.144 14.945C135.074 15.1318 135.039 15.3318 135.043 15.5332Z" fill="white"/>
</svg>
